# xmcd
#
# Track frame offsets: 
#        150
#        22132
#        46943
#        72375
#        90127
#        109772
#        127229
#        147961
#        170444
#
# Disc length: 2562 seconds
#
# Revision: 0
# Processed by: cddbd v1.5.1PL0 Copyright (c) Steve Scherf et al.
# Submitted via: ExactAudioCopy v0.95a5
#
DISCID=7b0a0009
DTITLE=Lizz Fields - By Day By Night
DYEAR=2003
DGENRE=R&B
TTITLE0=I Gotta Go
TTITLE1=Say The Word
TTITLE2=When I See Love
TTITLE3=Star Gazer
TTITLE4=Hey
TTITLE5=Fire
TTITLE6=So Long, Hello
TTITLE7=Selfish Tendencies
TTITLE8=Simply Put
EXTD=
EXTT0=
EXTT1=
EXTT2=
EXTT3=
EXTT4=
EXTT5=
EXTT6=
EXTT7=
EXTT8=
PLAYORDER=
